# xmcd
#
# Track frame offsets:
#	150
#	15125
#	32252
#	48617
#	61235
#	76822
#	86602
#	100285
#	111812
#	127310
#	142427
#	154990
#
# Disc length: 2298 seconds
#
# Revision: 1
# Processed by: cddbd v1.4PL0 Copyright (c) Steve Scherf et al.
# Submitted via: audiograbber 1.80.04
#
DISCID=9b08f80c
DTITLE=Pickin' On The Dixie Chicks - A Bluegrass Tribute To The Dixie Chicks
DYEAR=1900
DGENRE=
TTITLE0=Tonight The Heartache's On Me
TTITLE1=Just A Bit Like Me
TTITLE2=Wide Open Spaces
TTITLE3=There's Your Trouble
TTITLE4=You Were Mine
TTITLE5=Let 'Er Rip
TTITLE6=Shouldn't A Told You That
TTITLE7=I Want To Be A Cowboy's Sweetheart
TTITLE8=Ready To Run
TTITLE9=Sin Wagon
TTITLE10=I Can Love You Better
TTITLE11=Cowboy Take Me Away
EXTD=
EXTT0=
EXTT1=
EXTT2=
EXTT3=
EXTT4=
EXTT5=
EXTT6=
EXTT7=
EXTT8=
EXTT9=
EXTT10=
EXTT11=
PLAYORDER=
